<svg width="846" height="192" viewBox="0 0 846 192" fill="none" xmlns="http://www.w3.org/2000/svg">
<g clip-path="url(#clip0_3_2)" filter="url(#filter0_f_3_2)">

<mask id="path-1-outside-1_3_2" maskUnits="userSpaceOnUse" x="160.1" y="28.0914" width="521" height="164" fill="black">
<rect fill="white" x="160.1" y="28.0914" width="521" height="164"/>
<path d="M225.26 169.851C238.22 169.851 253.34 164.091 260.78 156.411L275.66 171.771C264.62 183.531 243.02 190.971 225.5 190.971C190.94 190.971 161.66 163.851 161.66 125.691C161.66 88.4914 189.26 61.1314 223.58 61.1314C261.5 61.1314 283.34 89.9314 283.34 134.331H185.66C188.78 154.971 203.9 169.851 225.26 169.851ZM224.54 82.2514C205.34 82.2514 189.74 95.2114 185.9 115.371H260.3C257.66 96.1714 245.9 82.2514 224.54 82.2514ZM316.64 87.7714C324.56 71.4514 341.36 61.1314 362.72 61.1314V81.7714C337.04 81.7714 318.8 95.9314 316.64 117.531V188.091H292.88V64.0114H316.64V87.7714ZM436.778 165.771L445.418 182.091C438.698 187.611 429.578 190.971 420.698 190.971C401.498 190.971 388.058 177.051 388.058 157.131V84.1714H369.338V64.0114H388.058V29.9314H411.338V64.0114H440.618V84.1714H411.338V155.451C411.338 164.091 417.098 170.331 424.058 170.331C429.338 170.331 434.138 168.411 436.778 165.771ZM504.916 169.851C517.876 169.851 532.996 164.091 540.436 156.411L555.316 171.771C544.276 183.531 522.676 190.971 505.156 190.971C470.596 190.971 441.316 163.851 441.316 125.691C441.316 88.4914 468.916 61.1314 503.236 61.1314C541.156 61.1314 562.996 89.9314 562.996 134.331H465.316C468.436 154.971 483.556 169.851 504.916 169.851ZM504.196 82.2514C484.996 82.2514 469.396 95.2114 465.556 115.371H539.956C537.316 96.1714 525.556 82.2514 504.196 82.2514ZM678.856 188.091H652.216L618.376 142.491L584.296 188.091H557.896L605.176 124.731L559.816 64.0114H586.696L618.376 106.731L650.296 64.0114H676.696L631.576 124.491L678.856 188.091Z"/>
</mask>
<path d="M225.26 169.851C238.22 169.851 253.34 164.091 260.78 156.411L275.66 171.771C264.62 183.531 243.02 190.971 225.5 190.971C190.94 190.971 161.66 163.851 161.66 125.691C161.66 88.4914 189.26 61.1314 223.58 61.1314C261.5 61.1314 283.34 89.9314 283.34 134.331H185.66C188.78 154.971 203.9 169.851 225.26 169.851ZM224.54 82.2514C205.34 82.2514 189.74 95.2114 185.9 115.371H260.3C257.66 96.1714 245.9 82.2514 224.54 82.2514ZM316.64 87.7714C324.56 71.4514 341.36 61.1314 362.72 61.1314V81.7714C337.04 81.7714 318.8 95.9314 316.64 117.531V188.091H292.88V64.0114H316.64V87.7714ZM436.778 165.771L445.418 182.091C438.698 187.611 429.578 190.971 420.698 190.971C401.498 190.971 388.058 177.051 388.058 157.131V84.1714H369.338V64.0114H388.058V29.9314H411.338V64.0114H440.618V84.1714H411.338V155.451C411.338 164.091 417.098 170.331 424.058 170.331C429.338 170.331 434.138 168.411 436.778 165.771ZM504.916 169.851C517.876 169.851 532.996 164.091 540.436 156.411L555.316 171.771C544.276 183.531 522.676 190.971 505.156 190.971C470.596 190.971 441.316 163.851 441.316 125.691C441.316 88.4914 468.916 61.1314 503.236 61.1314C541.156 61.1314 562.996 89.9314 562.996 134.331H465.316C468.436 154.971 483.556 169.851 504.916 169.851ZM504.196 82.2514C484.996 82.2514 469.396 95.2114 465.556 115.371H539.956C537.316 96.1714 525.556 82.2514 504.196 82.2514ZM678.856 188.091H652.216L618.376 142.491L584.296 188.091H557.896L605.176 124.731L559.816 64.0114H586.696L618.376 106.731L650.296 64.0114H676.696L631.576 124.491L678.856 188.091Z" fill="#1F2121"/>
<path d="M260.78 156.411L261.498 155.716L260.78 154.974L260.061 155.716L260.78 156.411ZM275.66 171.771L276.389 172.456L277.041 171.761L276.378 171.076L275.66 171.771ZM283.34 134.331V135.331H284.34V134.331H283.34ZM185.66 134.331V133.331H184.497L184.671 134.481L185.66 134.331ZM185.9 115.371L184.917 115.184L184.691 116.371H185.9V115.371ZM260.3 115.371V116.371H261.446L261.29 115.235L260.3 115.371ZM225.26 169.851V170.851C231.878 170.851 239.018 169.383 245.444 166.946C251.862 164.513 257.644 161.085 261.498 157.107L260.78 156.411L260.061 155.716C256.475 159.418 250.977 162.71 244.735 165.076C238.501 167.44 231.601 168.851 225.26 168.851V169.851ZM260.78 156.411L260.061 157.107L274.941 172.467L275.66 171.771L276.378 171.076L261.498 155.716L260.78 156.411ZM275.66 171.771L274.93 171.087C269.549 176.819 261.54 181.548 252.662 184.844C243.791 188.137 234.129 189.971 225.5 189.971V190.971V191.971C234.39 191.971 244.288 190.086 253.358 186.719C262.42 183.355 270.73 178.483 276.389 172.456L275.66 171.771ZM225.5 190.971V189.971C191.485 189.971 162.66 163.292 162.66 125.691H161.66H160.66C160.66 164.411 190.395 191.971 225.5 191.971V190.971ZM161.66 125.691H162.66C162.66 89.0186 189.837 62.1314 223.58 62.1314V61.1314V60.1314C188.682 60.1314 160.66 87.9642 160.66 125.691H161.66ZM223.58 61.1314V62.1314C242.261 62.1314 256.904 69.2126 266.899 81.7061C276.916 94.2272 282.34 112.282 282.34 134.331H283.34H284.34C284.34 111.981 278.843 93.4356 268.46 80.4567C258.055 67.4502 242.818 60.1314 223.58 60.1314V61.1314ZM283.34 134.331V133.331H185.66V134.331V135.331H283.34V134.331ZM185.66 134.331L184.671 134.481C187.856 155.55 203.346 170.851 225.26 170.851V169.851V168.851C204.453 168.851 189.703 154.393 186.648 134.182L185.66 134.331ZM224.54 82.2514V81.2514C204.837 81.2514 188.843 94.5748 184.917 115.184L185.9 115.371L186.882 115.559C190.636 95.848 205.842 83.2514 224.54 83.2514V82.2514ZM185.9 115.371V116.371H260.3V115.371V114.371H185.9V115.371ZM260.3 115.371L261.29 115.235C259.948 105.476 256.277 96.9724 250.143 90.9007C243.995 84.8147 235.452 81.2514 224.54 81.2514V82.2514V83.2514C234.987 83.2514 243.004 86.6481 248.736 92.3221C254.482 98.0104 258.011 106.067 259.309 115.508L260.3 115.371ZM316.64 87.7714H315.64L317.539 88.208L316.64 87.7714ZM362.72 61.1314H363.72V60.1314H362.72V61.1314ZM362.72 81.7714V82.7714H363.72V81.7714H362.72ZM316.64 117.531L315.645 117.432L315.64 117.482V117.531H316.64ZM316.64 188.091V189.091H317.64V188.091H316.64ZM292.88 188.091H291.88V189.091H292.88V188.091ZM292.88 64.0114V63.0114H291.88V64.0114H292.88ZM316.64 64.0114H317.64V63.0114H316.64V64.0114ZM316.64 87.7714L317.539 88.208C325.273 72.2715 341.697 62.1314 362.72 62.1314V61.1314V60.1314C341.022 60.1314 323.846 70.6313 315.74 87.3348L316.64 87.7714ZM362.72 61.1314H361.72V81.7714H362.72H363.72V61.1314H362.72ZM362.72 81.7714V80.7714C336.667 80.7714 317.869 95.1913 315.645 117.432L316.64 117.531L317.635 117.631C319.731 96.6715 337.412 82.7714 362.72 82.7714V81.7714ZM316.64 117.531H315.64V188.091H316.64H317.64V117.531H316.64ZM316.64 188.091V187.091H292.88V188.091V189.091H316.64V188.091ZM292.88 188.091H293.88V64.0114H292.88H291.88V188.091H292.88ZM292.88 64.0114V65.0114H316.64V64.0114V63.0114H292.88V64.0114ZM316.64 64.0114H315.64V87.7714H316.64H317.64V64.0114H316.64ZM436.778 165.771L437.662 165.304L437.029 164.107L436.071 165.064L436.778 165.771ZM445.418 182.091L446.053 182.864L446.684 182.346L446.302 181.624L445.418 182.091ZM388.058 84.1714H389.058V83.1714H388.058V84.1714ZM369.338 84.1714H368.338V85.1714H369.338V84.1714ZM369.338 64.0114V63.0114H368.338V64.0114H369.338ZM388.058 64.0114V65.0114H389.058V64.0114H388.058ZM388.058 29.9314V28.9314H387.058V29.9314H388.058ZM411.338 29.9314H412.338V28.9314H411.338V29.9314ZM411.338 64.0114H410.338V65.0114H411.338V64.0114ZM440.618 64.0114H441.618V63.0114H440.618V64.0114ZM440.618 84.1714V85.1714H441.618V84.1714H440.618ZM411.338 84.1714V83.1714H410.338V84.1714H411.338ZM436.778 165.771L435.895 166.239L444.535 182.559L445.418 182.091L446.302 181.624L437.662 165.304L436.778 165.771ZM445.418 182.091L444.784 181.319C438.239 186.695 429.342 189.971 420.698 189.971V190.971V191.971C429.814 191.971 439.158 188.528 446.053 182.864L445.418 182.091ZM420.698 190.971V189.971C411.349 189.971 403.456 186.587 397.898 180.827C392.338 175.064 389.058 166.863 389.058 157.131H388.058H387.058C387.058 167.32 390.499 176.038 396.459 182.216C402.421 188.396 410.848 191.971 420.698 191.971V190.971ZM388.058 157.131H389.058V84.1714H388.058H387.058V157.131H388.058ZM388.058 84.1714V83.1714H369.338V84.1714V85.1714H388.058V84.1714ZM369.338 84.1714H370.338V64.0114H369.338H368.338V84.1714H369.338ZM369.338 64.0114V65.0114H388.058V64.0114V63.0114H369.338V64.0114ZM388.058 64.0114H389.058V29.9314H388.058H387.058V64.0114H388.058ZM388.058 29.9314V30.9314H411.338V29.9314V28.9314H388.058V29.9314ZM411.338 29.9314H410.338V64.0114H411.338H412.338V29.9314H411.338ZM411.338 64.0114V65.0114H440.618V64.0114V63.0114H411.338V64.0114ZM440.618 64.0114H439.618V84.1714H440.618H441.618V64.0114H440.618ZM440.618 84.1714V83.1714H411.338V84.1714V85.1714H440.618V84.1714ZM411.338 84.1714H410.338V155.451H411.338H412.338V84.1714H411.338ZM411.338 155.451H410.338C410.338 164.514 416.425 171.331 424.058 171.331V170.331V169.331C417.772 169.331 412.338 163.669 412.338 155.451H411.338ZM424.058 170.331V171.331C429.546 171.331 434.62 169.343 437.485 166.479L436.778 165.771L436.071 165.064C433.656 167.479 429.131 169.331 424.058 169.331V170.331ZM540.436 156.411L541.154 155.716L540.436 154.974L539.718 155.716L540.436 156.411ZM555.316 171.771L556.045 172.456L556.698 171.761L556.034 171.076L555.316 171.771ZM562.996 134.331V135.331H563.996V134.331H562.996ZM465.316 134.331V133.331H464.153L464.327 134.481L465.316 134.331ZM465.556 115.371L464.573 115.184L464.347 116.371H465.556V115.371ZM539.956 115.371V116.371H541.103L540.946 115.235L539.956 115.371ZM504.916 169.851V170.851C511.534 170.851 518.674 169.383 525.1 166.946C531.518 164.513 537.301 161.085 541.154 157.107L540.436 156.411L539.718 155.716C536.131 159.418 530.633 162.71 524.391 165.076C518.158 167.44 511.258 168.851 504.916 168.851V169.851ZM540.436 156.411L539.718 157.107L554.598 172.467L555.316 171.771L556.034 171.076L541.154 155.716L540.436 156.411ZM555.316 171.771L554.587 171.087C549.205 176.819 541.196 181.548 532.318 184.844C523.447 188.137 513.785 189.971 505.156 189.971V190.971V191.971C514.047 191.971 523.944 190.086 533.014 186.719C542.076 183.355 550.386 178.483 556.045 172.456L555.316 171.771ZM505.156 190.971V189.971C471.141 189.971 442.316 163.292 442.316 125.691H441.316H440.316C440.316 164.411 470.051 191.971 505.156 191.971V190.971ZM441.316 125.691H442.316C442.316 89.0186 469.493 62.1314 503.236 62.1314V61.1314V60.1314C468.339 60.1314 440.316 87.9642 440.316 125.691H441.316ZM503.236 61.1314V62.1314C521.918 62.1314 536.56 69.2126 546.555 81.7061C556.572 94.2272 561.996 112.282 561.996 134.331H562.996H563.996C563.996 111.981 558.5 93.4356 548.117 80.4567C537.711 67.4502 522.474 60.1314 503.236 60.1314V61.1314ZM562.996 134.331V133.331H465.316V134.331V135.331H562.996V134.331ZM465.316 134.331L464.327 134.481C467.512 155.55 483.003 170.851 504.916 170.851V169.851V168.851C484.109 168.851 469.36 154.393 466.305 134.182L465.316 134.331ZM504.196 82.2514V81.2514C484.493 81.2514 468.499 94.5748 464.573 115.184L465.556 115.371L466.538 115.559C470.293 95.848 485.498 83.2514 504.196 83.2514V82.2514ZM465.556 115.371V116.371H539.956V115.371V114.371H465.556V115.371ZM539.956 115.371L540.946 115.235C539.605 105.476 535.933 96.9724 529.799 90.9007C523.651 84.8147 515.108 81.2514 504.196 81.2514V82.2514V83.2514C514.643 83.2514 522.66 86.6481 528.392 92.3221C534.139 98.0104 537.667 106.067 538.965 115.508L539.956 115.371ZM678.856 188.091V189.091H680.845L679.658 187.495L678.856 188.091ZM652.216 188.091L651.413 188.687L651.713 189.091H652.216V188.091ZM618.376 142.491L619.179 141.895L618.379 140.817L617.575 141.893L618.376 142.491ZM584.296 188.091V189.091H584.797L585.097 188.69L584.296 188.091ZM557.896 188.091L557.094 187.493L555.902 189.091H557.896V188.091ZM605.176 124.731L605.977 125.329L606.424 124.731L605.977 124.133L605.176 124.731ZM559.816 64.0114V63.0114H557.821L559.015 64.6099L559.816 64.0114ZM586.696 64.0114L587.499 63.4157L587.199 63.0114H586.696V64.0114ZM618.376 106.731L617.573 107.327L618.373 108.406L619.177 107.33L618.376 106.731ZM650.296 64.0114V63.0114H649.795L649.495 63.4128L650.296 64.0114ZM676.696 64.0114L677.497 64.6094L678.689 63.0114H676.696V64.0114ZM631.576 124.491L630.774 123.893L630.329 124.49L630.773 125.088L631.576 124.491ZM678.856 188.091V187.091H652.216V188.091V189.091H678.856V188.091ZM652.216 188.091L653.019 187.495L619.179 141.895L618.376 142.491L617.573 143.087L651.413 188.687L652.216 188.091ZM618.376 142.491L617.575 141.893L583.495 187.493L584.296 188.091L585.097 188.69L619.177 143.09L618.376 142.491ZM584.296 188.091V187.091H557.896V188.091V189.091H584.296V188.091ZM557.896 188.091L558.697 188.689L605.977 125.329L605.176 124.731L604.374 124.133L557.094 187.493L557.896 188.091ZM605.176 124.731L605.977 124.133L560.617 63.4129L559.816 64.0114L559.015 64.6099L604.375 125.33L605.176 124.731ZM559.816 64.0114V65.0114H586.696V64.0114V63.0114H559.816V64.0114ZM586.696 64.0114L585.893 64.6071L617.573 107.327L618.376 106.731L619.179 106.136L587.499 63.4157L586.696 64.0114ZM618.376 106.731L619.177 107.33L651.097 64.61L650.296 64.0114L649.495 63.4128L617.575 106.133L618.376 106.731ZM650.296 64.0114V65.0114H676.696V64.0114V63.0114H650.296V64.0114ZM676.696 64.0114L675.894 63.4134L630.774 123.893L631.576 124.491L632.377 125.089L677.497 64.6094L676.696 64.0114ZM631.576 124.491L630.773 125.088L678.053 188.688L678.856 188.091L679.658 187.495L632.378 123.895L631.576 124.491Z" fill="#1F2121" mask="url(#path-1-outside-1_3_2)"/>
<path d="M832.22 63.62C832.22 88.46 818.72 107.54 795.68 107.54C779.48 107.54 768.14 100.88 757.52 79.28C748.7 97.28 736.46 106.64 719.18 106.82C698.12 107 683.18 90.44 683.18 64.34C683.18 39.5 697.76 20.96 719.9 20.96C733.22 20.96 747.08 27.26 758.24 49.94C769.04 28.16 779.48 21.5 796.04 21.5C817.46 21.5 832.22 38.6 832.22 63.62ZM695.42 64.34C695.42 80.36 703.7 94.76 719.72 94.76C732.86 94.76 742.58 84.5 751.58 65.06C742.94 44.36 733.94 32.84 720.08 32.84C704.42 32.84 695.42 47.6 695.42 64.34ZM795.32 33.56C781.1 33.56 773.72 44.72 764.36 64.34C772.64 84.32 781.28 95.48 794.96 95.48C810.8 95.48 820.34 81.08 820.34 64.52C820.34 47.42 810.44 33.56 795.32 33.56Z" fill="#009688"/>
<path d="M165 4.00001L195 4L137.5 138L107.5 138L165 4.00001Z" fill="#009688"/>
<path d="M131 153L116 188L86 188L7 4.00004L37 4.00003L101 153L131 153Z" fill="#1F2121"/>
</g>
<defs>
<filter id="filter0_f_3_2" x="0" y="0" width="846" height="192" filterUnits="userSpaceOnUse" color-interpolation-filters="sRGB">
<feFlood flood-opacity="0" result="BackgroundImageFix"/>
<feBlend mode="normal" in="SourceGraphic" in2="BackgroundImageFix" result="shape"/>
<feGaussianBlur stdDeviation="0.5" result="effect1_foregroundBlur_3_2"/>
</filter>
<clipPath id="clip0_3_2">
<rect width="844" height="190" fill="white" transform="translate(1 1)"/>
</clipPath>
</defs>
</svg>
