<svg width="844" height="190" viewBox="0 0 844 190" fill="none" xmlns="http://www.w3.org/2000/svg">
<g clip-path="url(#clip0_4_36)">

<mask id="path-1-outside-1_4_36" maskUnits="userSpaceOnUse" x="163.1" y="27.0914" width="521" height="164" fill="black">
<rect fill="white" x="163.1" y="27.0914" width="521" height="164"/>
<path d="M228.26 168.851C241.22 168.851 256.34 163.091 263.78 155.411L278.66 170.771C267.62 182.531 246.02 189.971 228.5 189.971C193.94 189.971 164.66 162.851 164.66 124.691C164.66 87.4914 192.26 60.1314 226.58 60.1314C264.5 60.1314 286.34 88.9314 286.34 133.331H188.66C191.78 153.971 206.9 168.851 228.26 168.851ZM227.54 81.2514C208.34 81.2514 192.74 94.2114 188.9 114.371H263.3C260.66 95.1714 248.9 81.2514 227.54 81.2514ZM319.64 86.7714C327.56 70.4514 344.36 60.1314 365.72 60.1314V80.7714C340.04 80.7714 321.8 94.9314 319.64 116.531V187.091H295.88V63.0114H319.64V86.7714ZM439.778 164.771L448.418 181.091C441.698 186.611 432.578 189.971 423.698 189.971C404.498 189.971 391.058 176.051 391.058 156.131V83.1714H372.338V63.0114H391.058V28.9314H414.338V63.0114H443.618V83.1714H414.338V154.451C414.338 163.091 420.098 169.331 427.058 169.331C432.338 169.331 437.138 167.411 439.778 164.771ZM507.916 168.851C520.876 168.851 535.996 163.091 543.436 155.411L558.316 170.771C547.276 182.531 525.676 189.971 508.156 189.971C473.596 189.971 444.316 162.851 444.316 124.691C444.316 87.4914 471.916 60.1314 506.236 60.1314C544.156 60.1314 565.996 88.9314 565.996 133.331H468.316C471.436 153.971 486.556 168.851 507.916 168.851ZM507.196 81.2514C487.996 81.2514 472.396 94.2114 468.556 114.371H542.956C540.316 95.1714 528.556 81.2514 507.196 81.2514ZM681.856 187.091H655.216L621.376 141.491L587.296 187.091H560.896L608.176 123.731L562.816 63.0114H589.696L621.376 105.731L653.296 63.0114H679.696L634.576 123.491L681.856 187.091Z"/>
</mask>
<path d="M228.26 168.851C241.22 168.851 256.34 163.091 263.78 155.411L278.66 170.771C267.62 182.531 246.02 189.971 228.5 189.971C193.94 189.971 164.66 162.851 164.66 124.691C164.66 87.4914 192.26 60.1314 226.58 60.1314C264.5 60.1314 286.34 88.9314 286.34 133.331H188.66C191.78 153.971 206.9 168.851 228.26 168.851ZM227.54 81.2514C208.34 81.2514 192.74 94.2114 188.9 114.371H263.3C260.66 95.1714 248.9 81.2514 227.54 81.2514ZM319.64 86.7714C327.56 70.4514 344.36 60.1314 365.72 60.1314V80.7714C340.04 80.7714 321.8 94.9314 319.64 116.531V187.091H295.88V63.0114H319.64V86.7714ZM439.778 164.771L448.418 181.091C441.698 186.611 432.578 189.971 423.698 189.971C404.498 189.971 391.058 176.051 391.058 156.131V83.1714H372.338V63.0114H391.058V28.9314H414.338V63.0114H443.618V83.1714H414.338V154.451C414.338 163.091 420.098 169.331 427.058 169.331C432.338 169.331 437.138 167.411 439.778 164.771ZM507.916 168.851C520.876 168.851 535.996 163.091 543.436 155.411L558.316 170.771C547.276 182.531 525.676 189.971 508.156 189.971C473.596 189.971 444.316 162.851 444.316 124.691C444.316 87.4914 471.916 60.1314 506.236 60.1314C544.156 60.1314 565.996 88.9314 565.996 133.331H468.316C471.436 153.971 486.556 168.851 507.916 168.851ZM507.196 81.2514C487.996 81.2514 472.396 94.2114 468.556 114.371H542.956C540.316 95.1714 528.556 81.2514 507.196 81.2514ZM681.856 187.091H655.216L621.376 141.491L587.296 187.091H560.896L608.176 123.731L562.816 63.0114H589.696L621.376 105.731L653.296 63.0114H679.696L634.576 123.491L681.856 187.091Z" fill="white"/>
<path d="M263.78 155.411L264.498 154.716L263.78 153.974L263.061 154.716L263.78 155.411ZM278.66 170.771L279.389 171.456L280.041 170.761L279.378 170.076L278.66 170.771ZM286.34 133.331V134.331H287.34V133.331H286.34ZM188.66 133.331V132.331H187.497L187.671 133.481L188.66 133.331ZM188.9 114.371L187.917 114.184L187.691 115.371H188.9V114.371ZM263.3 114.371V115.371H264.446L264.29 114.235L263.3 114.371ZM228.26 168.851V169.851C234.878 169.851 242.018 168.383 248.444 165.946C254.862 163.513 260.644 160.085 264.498 156.107L263.78 155.411L263.061 154.716C259.475 158.418 253.977 161.71 247.735 164.076C241.501 166.44 234.601 167.851 228.26 167.851V168.851ZM263.78 155.411L263.061 156.107L277.941 171.467L278.66 170.771L279.378 170.076L264.498 154.716L263.78 155.411ZM278.66 170.771L277.93 170.087C272.549 175.819 264.54 180.548 255.662 183.844C246.791 187.137 237.129 188.971 228.5 188.971V189.971V190.971C237.39 190.971 247.288 189.086 256.358 185.719C265.42 182.355 273.73 177.483 279.389 171.456L278.66 170.771ZM228.5 189.971V188.971C194.485 188.971 165.66 162.292 165.66 124.691H164.66H163.66C163.66 163.411 193.395 190.971 228.5 190.971V189.971ZM164.66 124.691H165.66C165.66 88.0186 192.837 61.1314 226.58 61.1314V60.1314V59.1314C191.682 59.1314 163.66 86.9642 163.66 124.691H164.66ZM226.58 60.1314V61.1314C245.261 61.1314 259.904 68.2126 269.899 80.7061C279.916 93.2272 285.34 111.282 285.34 133.331H286.34H287.34C287.34 110.981 281.843 92.4356 271.46 79.4567C261.055 66.4502 245.818 59.1314 226.58 59.1314V60.1314ZM286.34 133.331V132.331H188.66V133.331V134.331H286.34V133.331ZM188.66 133.331L187.671 133.481C190.856 154.55 206.346 169.851 228.26 169.851V168.851V167.851C207.453 167.851 192.703 153.393 189.648 133.182L188.66 133.331ZM227.54 81.2514V80.2514C207.837 80.2514 191.843 93.5748 187.917 114.184L188.9 114.371L189.882 114.559C193.636 94.848 208.842 82.2514 227.54 82.2514V81.2514ZM188.9 114.371V115.371H263.3V114.371V113.371H188.9V114.371ZM263.3 114.371L264.29 114.235C262.948 104.476 259.277 95.9724 253.143 89.9007C246.995 83.8147 238.452 80.2514 227.54 80.2514V81.2514V82.2514C237.987 82.2514 246.004 85.6481 251.736 91.3221C257.482 97.0104 261.011 105.067 262.309 114.508L263.3 114.371ZM319.64 86.7714H318.64L320.539 87.208L319.64 86.7714ZM365.72 60.1314H366.72V59.1314H365.72V60.1314ZM365.72 80.7714V81.7714H366.72V80.7714H365.72ZM319.64 116.531L318.645 116.432L318.64 116.482V116.531H319.64ZM319.64 187.091V188.091H320.64V187.091H319.64ZM295.88 187.091H294.88V188.091H295.88V187.091ZM295.88 63.0114V62.0114H294.88V63.0114H295.88ZM319.64 63.0114H320.64V62.0114H319.64V63.0114ZM319.64 86.7714L320.539 87.208C328.273 71.2715 344.697 61.1314 365.72 61.1314V60.1314V59.1314C344.022 59.1314 326.846 69.6313 318.74 86.3348L319.64 86.7714ZM365.72 60.1314H364.72V80.7714H365.72H366.72V60.1314H365.72ZM365.72 80.7714V79.7714C339.667 79.7714 320.869 94.1913 318.645 116.432L319.64 116.531L320.635 116.631C322.731 95.6715 340.412 81.7714 365.72 81.7714V80.7714ZM319.64 116.531H318.64V187.091H319.64H320.64V116.531H319.64ZM319.64 187.091V186.091H295.88V187.091V188.091H319.64V187.091ZM295.88 187.091H296.88V63.0114H295.88H294.88V187.091H295.88ZM295.88 63.0114V64.0114H319.64V63.0114V62.0114H295.88V63.0114ZM319.64 63.0114H318.64V86.7714H319.64H320.64V63.0114H319.64ZM439.778 164.771L440.662 164.304L440.029 163.107L439.071 164.064L439.778 164.771ZM448.418 181.091L449.053 181.864L449.684 181.346L449.302 180.624L448.418 181.091ZM391.058 83.1714H392.058V82.1714H391.058V83.1714ZM372.338 83.1714H371.338V84.1714H372.338V83.1714ZM372.338 63.0114V62.0114H371.338V63.0114H372.338ZM391.058 63.0114V64.0114H392.058V63.0114H391.058ZM391.058 28.9314V27.9314H390.058V28.9314H391.058ZM414.338 28.9314H415.338V27.9314H414.338V28.9314ZM414.338 63.0114H413.338V64.0114H414.338V63.0114ZM443.618 63.0114H444.618V62.0114H443.618V63.0114ZM443.618 83.1714V84.1714H444.618V83.1714H443.618ZM414.338 83.1714V82.1714H413.338V83.1714H414.338ZM439.778 164.771L438.895 165.239L447.535 181.559L448.418 181.091L449.302 180.624L440.662 164.304L439.778 164.771ZM448.418 181.091L447.784 180.319C441.239 185.695 432.342 188.971 423.698 188.971V189.971V190.971C432.814 190.971 442.158 187.528 449.053 181.864L448.418 181.091ZM423.698 189.971V188.971C414.349 188.971 406.456 185.587 400.898 179.827C395.338 174.064 392.058 165.863 392.058 156.131H391.058H390.058C390.058 166.32 393.499 175.038 399.459 181.216C405.421 187.396 413.848 190.971 423.698 190.971V189.971ZM391.058 156.131H392.058V83.1714H391.058H390.058V156.131H391.058ZM391.058 83.1714V82.1714H372.338V83.1714V84.1714H391.058V83.1714ZM372.338 83.1714H373.338V63.0114H372.338H371.338V83.1714H372.338ZM372.338 63.0114V64.0114H391.058V63.0114V62.0114H372.338V63.0114ZM391.058 63.0114H392.058V28.9314H391.058H390.058V63.0114H391.058ZM391.058 28.9314V29.9314H414.338V28.9314V27.9314H391.058V28.9314ZM414.338 28.9314H413.338V63.0114H414.338H415.338V28.9314H414.338ZM414.338 63.0114V64.0114H443.618V63.0114V62.0114H414.338V63.0114ZM443.618 63.0114H442.618V83.1714H443.618H444.618V63.0114H443.618ZM443.618 83.1714V82.1714H414.338V83.1714V84.1714H443.618V83.1714ZM414.338 83.1714H413.338V154.451H414.338H415.338V83.1714H414.338ZM414.338 154.451H413.338C413.338 163.514 419.425 170.331 427.058 170.331V169.331V168.331C420.772 168.331 415.338 162.669 415.338 154.451H414.338ZM427.058 169.331V170.331C432.546 170.331 437.62 168.343 440.485 165.479L439.778 164.771L439.071 164.064C436.656 166.479 432.131 168.331 427.058 168.331V169.331ZM543.436 155.411L544.154 154.716L543.436 153.974L542.718 154.716L543.436 155.411ZM558.316 170.771L559.045 171.456L559.698 170.761L559.034 170.076L558.316 170.771ZM565.996 133.331V134.331H566.996V133.331H565.996ZM468.316 133.331V132.331H467.153L467.327 133.481L468.316 133.331ZM468.556 114.371L467.573 114.184L467.347 115.371H468.556V114.371ZM542.956 114.371V115.371H544.103L543.946 114.235L542.956 114.371ZM507.916 168.851V169.851C514.534 169.851 521.674 168.383 528.1 165.946C534.518 163.513 540.301 160.085 544.154 156.107L543.436 155.411L542.718 154.716C539.131 158.418 533.633 161.71 527.391 164.076C521.158 166.44 514.258 167.851 507.916 167.851V168.851ZM543.436 155.411L542.718 156.107L557.598 171.467L558.316 170.771L559.034 170.076L544.154 154.716L543.436 155.411ZM558.316 170.771L557.587 170.087C552.205 175.819 544.196 180.548 535.318 183.844C526.447 187.137 516.785 188.971 508.156 188.971V189.971V190.971C517.047 190.971 526.944 189.086 536.014 185.719C545.076 182.355 553.386 177.483 559.045 171.456L558.316 170.771ZM508.156 189.971V188.971C474.141 188.971 445.316 162.292 445.316 124.691H444.316H443.316C443.316 163.411 473.051 190.971 508.156 190.971V189.971ZM444.316 124.691H445.316C445.316 88.0186 472.493 61.1314 506.236 61.1314V60.1314V59.1314C471.339 59.1314 443.316 86.9642 443.316 124.691H444.316ZM506.236 60.1314V61.1314C524.918 61.1314 539.56 68.2126 549.555 80.7061C559.572 93.2272 564.996 111.282 564.996 133.331H565.996H566.996C566.996 110.981 561.5 92.4356 551.117 79.4567C540.711 66.4502 525.474 59.1314 506.236 59.1314V60.1314ZM565.996 133.331V132.331H468.316V133.331V134.331H565.996V133.331ZM468.316 133.331L467.327 133.481C470.512 154.55 486.003 169.851 507.916 169.851V168.851V167.851C487.109 167.851 472.36 153.393 469.305 133.182L468.316 133.331ZM507.196 81.2514V80.2514C487.493 80.2514 471.499 93.5748 467.573 114.184L468.556 114.371L469.538 114.559C473.293 94.848 488.498 82.2514 507.196 82.2514V81.2514ZM468.556 114.371V115.371H542.956V114.371V113.371H468.556V114.371ZM542.956 114.371L543.946 114.235C542.605 104.476 538.933 95.9724 532.799 89.9007C526.651 83.8147 518.108 80.2514 507.196 80.2514V81.2514V82.2514C517.643 82.2514 525.66 85.6481 531.392 91.3221C537.139 97.0104 540.667 105.067 541.965 114.508L542.956 114.371ZM681.856 187.091V188.091H683.845L682.658 186.495L681.856 187.091ZM655.216 187.091L654.413 187.687L654.713 188.091H655.216V187.091ZM621.376 141.491L622.179 140.895L621.379 139.817L620.575 140.893L621.376 141.491ZM587.296 187.091V188.091H587.797L588.097 187.69L587.296 187.091ZM560.896 187.091L560.094 186.493L558.902 188.091H560.896V187.091ZM608.176 123.731L608.977 124.329L609.424 123.731L608.977 123.133L608.176 123.731ZM562.816 63.0114V62.0114H560.821L562.015 63.6099L562.816 63.0114ZM589.696 63.0114L590.499 62.4157L590.199 62.0114H589.696V63.0114ZM621.376 105.731L620.573 106.327L621.373 107.406L622.177 106.33L621.376 105.731ZM653.296 63.0114V62.0114H652.795L652.495 62.4128L653.296 63.0114ZM679.696 63.0114L680.497 63.6094L681.689 62.0114H679.696V63.0114ZM634.576 123.491L633.774 122.893L633.329 123.49L633.773 124.088L634.576 123.491ZM681.856 187.091V186.091H655.216V187.091V188.091H681.856V187.091ZM655.216 187.091L656.019 186.495L622.179 140.895L621.376 141.491L620.573 142.087L654.413 187.687L655.216 187.091ZM621.376 141.491L620.575 140.893L586.495 186.493L587.296 187.091L588.097 187.69L622.177 142.09L621.376 141.491ZM587.296 187.091V186.091H560.896V187.091V188.091H587.296V187.091ZM560.896 187.091L561.697 187.689L608.977 124.329L608.176 123.731L607.374 123.133L560.094 186.493L560.896 187.091ZM608.176 123.731L608.977 123.133L563.617 62.4129L562.816 63.0114L562.015 63.6099L607.375 124.33L608.176 123.731ZM562.816 63.0114V64.0114H589.696V63.0114V62.0114H562.816V63.0114ZM589.696 63.0114L588.893 63.6071L620.573 106.327L621.376 105.731L622.179 105.136L590.499 62.4157L589.696 63.0114ZM621.376 105.731L622.177 106.33L654.097 63.61L653.296 63.0114L652.495 62.4128L620.575 105.133L621.376 105.731ZM653.296 63.0114V64.0114H679.696V63.0114V62.0114H653.296V63.0114ZM679.696 63.0114L678.894 62.4134L633.774 122.893L634.576 123.491L635.377 124.089L680.497 63.6094L679.696 63.0114ZM634.576 123.491L633.773 124.088L681.053 187.688L681.856 187.091L682.658 186.495L635.378 122.895L634.576 123.491Z" fill="#1F2121" mask="url(#path-1-outside-1_4_36)"/>
<path d="M835.22 62.62C835.22 87.46 821.72 106.54 798.68 106.54C782.48 106.54 771.14 99.88 760.52 78.28C751.7 96.28 739.46 105.64 722.18 105.82C701.12 106 686.18 89.44 686.18 63.34C686.18 38.5 700.76 19.96 722.9 19.96C736.22 19.96 750.08 26.26 761.24 48.94C772.04 27.16 782.48 20.5 799.04 20.5C820.46 20.5 835.22 37.6 835.22 62.62ZM698.42 63.34C698.42 79.36 706.7 93.76 722.72 93.76C735.86 93.76 745.58 83.5 754.58 64.06C745.94 43.36 736.94 31.84 723.08 31.84C707.42 31.84 698.42 46.6 698.42 63.34ZM798.32 32.56C784.1 32.56 776.72 43.72 767.36 63.34C775.64 83.32 784.28 94.48 797.96 94.48C813.8 94.48 823.34 80.08 823.34 63.52C823.34 46.42 813.44 32.56 798.32 32.56Z" fill="#31B8C6"/>
<path d="M168 2.99999L198 2.99998L140.5 137L110.5 137L168 2.99999Z" fill="#31B8C6"/>
<path d="M134 152L119 187L89 187L10 3.00003L40 3.00002L104 152L134 152Z" fill="white"/>
</g>
<defs>
<clipPath id="clip0_4_36">
<rect width="844" height="190" fill="white"/>
</clipPath>
</defs>
</svg>
